<svg width="408" height="335" viewBox="0 0 408 335" fill="none" xmlns="http://www.w3.org/2000/svg"><path d="M99 72H45C36.1634 72 29 79.1634 29 88C29 96.8366 36.1634 104 45 104H99C107.837 104 115 96.8366 115 88C115 79.1634 107.837 72 99 72Z" fill="url(#a)"/><path d="M99 123H21C12.1634 123 5 130.163 5 139C5 147.837 12.1634 155 21 155H99C107.837 155 115 147.837 115 139C115 130.163 107.837 123 99 123Z" fill="url(#b)"/><path d="M99 174H49C40.1634 174 33 181.163 33 190C33 198.837 40.1634 206 49 206H99C107.837 206 115 198.837 115 190C115 181.163 107.837 174 99 174Z" fill="url(#c)"/><path d="M155 26H274C344 26 385 69 385 135C385 200 344 239 281 239H245L155 312V106" stroke="#121212" stroke-width="36" stroke-linecap="round" stroke-linejoin="round"/><path d="M155 99L228 159L314 98" stroke="url(#d)" stroke-width="36" stroke-linecap="round" stroke-linejoin="round"/><defs><linearGradient id="a" x1="29" y1="72" x2="49.9178" y2="128.217" gradientUnits="userSpaceOnUse"><stop stop-color="#FF8178"/><stop offset=".48" stop-color="#FF5E57"/><stop offset="1" stop-color="#DF403D"/></linearGradient><linearGradient id="b" x1="5" y1="123" x2="22.1655" y2="182.006" gradientUnits="userSpaceOnUse"><stop stop-color="#FF8178"/><stop offset=".48" stop-color="#FF5E57"/><stop offset="1" stop-color="#DF403D"/></linearGradient><linearGradient id="c" x1="33" y1="174" x2="54.6748" y2="229.542" gradientUnits="userSpaceOnUse"><stop stop-color="#FF8178"/><stop offset=".48" stop-color="#FF5E57"/><stop offset="1" stop-color="#DF403D"/></linearGradient><linearGradient id="d" x1="155" y1="98" x2="195.8" y2="204.347" gradientUnits="userSpaceOnUse"><stop stop-color="#FF8178"/><stop offset=".48" stop-color="#FF5E57"/><stop offset="1" stop-color="#DF403D"/></linearGradient></defs></svg>
